<svg width="16" height="15" viewBox="0 0 16 15" fill="none" xmlns="http://www.w3.org/2000/svg">
<path fill-rule="evenodd" clip-rule="evenodd" d="M2.59495 2.00534C2.52984 2.00043 2.43949 1.99999 2.27005 1.99999H1.16722C0.799026 1.99999 0.500549 1.70152 0.500549 1.33333C0.500549 0.965136 0.799026 0.66666 1.16722 0.66666H2.27005C2.27633 0.66666 2.28262 0.666659 2.2889 0.666658C2.43201 0.66664 2.5737 0.666623 2.69513 0.675772C2.83026 0.685954 2.98725 0.709868 3.14966 0.782314C3.37822 0.88427 3.57348 1.0485 3.71309 1.25622C3.81229 1.40381 3.86275 1.55438 3.89593 1.68576C3.92575 1.80383 3.95001 1.94343 3.97452 2.08443C3.97559 2.09062 3.97667 2.09681 3.97775 2.103L4.1366 3.01638L12.8126 3.2732C13.1526 3.28325 13.4464 3.29194 13.6884 3.31859C13.9441 3.34676 14.1977 3.39972 14.4409 3.52931C14.8095 3.72567 15.1074 4.03248 15.2927 4.40671C15.4151 4.65368 15.4605 4.9087 15.4811 5.16518C15.5006 5.40783 15.5006 5.70177 15.5005 6.0419V6.09106C15.5006 6.41071 15.5006 6.68798 15.4827 6.91791C15.4637 7.16175 15.4218 7.40395 15.3101 7.64126C15.1401 8.00246 14.8658 8.30451 14.5227 8.50854C14.2972 8.64259 14.0602 8.7076 13.8193 8.74999C13.5922 8.78996 13.3162 8.81666 12.9981 8.84743L6.50881 9.47543C6.18268 9.507 5.90011 9.53435 5.66436 9.5385C5.41458 9.5429 5.16415 9.52349 4.91274 9.43114C4.53569 9.29263 4.20909 9.04379 3.97546 8.71703C3.81968 8.49916 3.7345 8.26286 3.67243 8.02088C3.61385 7.79248 3.56522 7.5128 3.50909 7.19L2.66413 2.33146C2.6351 2.16452 2.61918 2.07558 2.6032 2.01227C2.60263 2.01002 2.60208 2.00789 2.60155 2.00586C2.59946 2.00569 2.59727 2.00551 2.59495 2.00534ZM4.36978 4.3572L4.81851 6.93739C4.88004 7.29122 4.92005 7.51841 4.96396 7.68962C5.00584 7.85291 5.03897 7.91202 5.06008 7.94155C5.13795 8.05046 5.24682 8.13341 5.3725 8.17958C5.40657 8.19209 5.47236 8.20834 5.64091 8.20537C5.81763 8.20227 6.04729 8.18053 6.40476 8.14593L12.8457 7.52262C13.1946 7.48885 13.4184 7.46672 13.5883 7.43683C13.7501 7.40836 13.8105 7.38081 13.8413 7.36249C13.9556 7.29448 14.0471 7.1938 14.1037 7.07339C14.119 7.04097 14.1406 6.9782 14.1534 6.8144C14.1667 6.64245 14.1672 6.41758 14.1672 6.06699C14.1672 5.69466 14.1667 5.45475 14.152 5.27186C14.138 5.09686 14.1142 5.03126 14.0979 4.99853C14.0362 4.87379 13.9369 4.77152 13.814 4.70606C13.7818 4.68889 13.7169 4.66313 13.5424 4.64391C13.36 4.62382 13.1202 4.61623 12.7481 4.60521L4.36978 4.3572Z" fill="white"/>
<path fill-rule="evenodd" clip-rule="evenodd" d="M6.16722 11.6667C5.79903 11.6667 5.50055 11.9651 5.50055 12.3333C5.50055 12.7015 5.79903 13 6.16722 13C6.53541 13 6.83388 12.7015 6.83388 12.3333C6.83388 11.9651 6.53541 11.6667 6.16722 11.6667ZM4.16722 12.3333C4.16722 11.2288 5.06265 10.3333 6.16722 10.3333C7.27179 10.3333 8.16722 11.2288 8.16722 12.3333C8.16722 13.4379 7.27179 14.3333 6.16722 14.3333C5.06265 14.3333 4.16722 13.4379 4.16722 12.3333Z" fill="white"/>
<path fill-rule="evenodd" clip-rule="evenodd" d="M12.5005 11.6667C12.1324 11.6667 11.8339 11.9651 11.8339 12.3333C11.8339 12.7015 12.1324 13 12.5005 13C12.8687 13 13.1672 12.7015 13.1672 12.3333C13.1672 11.9651 12.8687 11.6667 12.5005 11.6667ZM10.5005 12.3333C10.5005 11.2288 11.396 10.3333 12.5005 10.3333C13.6051 10.3333 14.5005 11.2288 14.5005 12.3333C14.5005 13.4379 13.6051 14.3333 12.5005 14.3333C11.396 14.3333 10.5005 13.4379 10.5005 12.3333Z" fill="white"/>
</svg>
