<svg width="20" height="20" viewBox="0 0 20 20" fill="none" xmlns="http://www.w3.org/2000/svg">
<path d="M14.6357 0.837128L12.3214 0.833313C9.72122 0.833313 8.0409 2.60422 8.0409 5.34517V7.42544H5.71389C5.51281 7.42544 5.34998 7.5929 5.34998 7.79946V10.8135C5.34998 11.0201 5.51299 11.1874 5.71389 11.1874H8.0409V18.7928C8.0409 18.9994 8.20373 19.1666 8.40482 19.1666H11.4409C11.642 19.1666 11.8048 18.9992 11.8048 18.7928V11.1874H14.5256C14.7267 11.1874 14.8896 11.0201 14.8896 10.8135L14.8907 7.79946C14.8907 7.70028 14.8522 7.6053 14.7841 7.53511C14.716 7.46492 14.6231 7.42544 14.5266 7.42544H11.8048V5.66197C11.8048 4.81437 12.0014 4.38409 13.0763 4.38409L14.6354 4.38352C14.8363 4.38352 14.9991 4.21606 14.9991 4.00969V1.21095C14.9991 1.00478 14.8365 0.837509 14.6357 0.837128Z" fill="#787A80"/>
</svg>
