<svg width="16" height="14" viewBox="0 0 16 14" fill="none" xmlns="http://www.w3.org/2000/svg">
<path fill-rule="evenodd" clip-rule="evenodd" d="M8.00011 12.2718C4.93407 10.5256 3.22403 8.78989 2.39712 7.28394C1.55078 5.74262 1.62462 4.44443 2.09426 3.52307C3.05957 1.62925 5.80464 1.02366 7.47715 3.13899L8.00007 3.80035L8.52303 3.13902C10.1958 1.02361 12.941 1.62929 13.9063 3.52307C14.376 4.44442 14.4498 5.74259 13.6034 7.28393C12.7764 8.78988 11.0663 10.5256 8.00011 12.2718ZM8.00013 1.73759C5.64733 -0.498146 2.1764 0.425881 0.906342 2.91757C0.209314 4.28504 0.199793 6.05246 1.22839 7.92569C2.24785 9.78231 4.28046 11.742 7.67761 13.6197L8.0001 13.7979L8.32259 13.6197C11.7199 11.742 13.7526 9.78233 14.7721 7.92571C15.8008 6.05248 15.7913 4.28505 15.0943 2.91757C13.8242 0.425834 10.3531 -0.498112 8.00013 1.73759Z" fill="#17696A"/>
</svg>
