<svg width="41" height="41" viewBox="0 0 41 41" fill="none" xmlns="http://www.w3.org/2000/svg">
<g clip-path="url(#clip0_724_118)">
<path d="M34.0222 28.6645C34.0494 28.9829 33.8009 29.2565 33.4846 29.2565H7.46926C7.15375 29.2565 6.90555 28.9842 6.93158 28.6664L8.79592 5.91215C8.81912 5.6295 9.05289 5.41199 9.33373 5.41199H31.5426C31.8226 5.41199 32.0561 5.62841 32.0801 5.91024L34.0222 28.6645Z" fill="#17696A"/>
<path d="M36.0989 34.6011C36.1314 34.9983 35.8211 35.3387 35.4269 35.3387H5.59446C5.20098 35.3387 4.891 34.9999 4.92216 34.6035L7.06383 7.34693C7.09176 6.99246 7.38434 6.71948 7.73614 6.71948H33.1959C33.5469 6.71948 33.8392 6.99137 33.868 7.34475L36.0989 34.6011Z" fill="url(#paint0_linear_724_118)"/>
<path d="M19.9232 26.6953C16.0402 26.6953 12.8813 22.8631 12.8813 18.1527C12.8813 17.9074 13.0781 17.7085 13.321 17.7085C13.564 17.7085 13.7608 17.9073 13.7608 18.1527C13.7608 22.3732 16.5253 25.8067 19.9233 25.8067C23.3214 25.8067 26.0858 22.3732 26.0858 18.1527C26.0858 17.9074 26.2826 17.7085 26.5256 17.7085C26.7685 17.7085 26.9653 17.9073 26.9653 18.1527C26.9652 22.8631 23.8062 26.6953 19.9232 26.6953Z" fill="white"/>
<path d="M24.2578 18.0336C24.1453 18.0336 24.0328 17.9902 23.9469 17.9034C23.7752 17.7299 23.7752 17.4487 23.9469 17.2752L26.2258 14.9728C26.3082 14.8895 26.42 14.8427 26.5367 14.8427C26.6534 14.8427 26.7652 14.8894 26.8476 14.9728L29.1042 17.2528C29.276 17.4263 29.276 17.7076 29.1042 17.8811C28.9325 18.0544 28.6541 18.0546 28.4824 17.8811L26.5366 15.9153L24.5688 17.9034C24.4828 17.9902 24.3703 18.0336 24.2578 18.0336Z" fill="white"/>
</g>
<defs>
<linearGradient id="paint0_linear_724_118" x1="29.8734" y1="31.3334" x2="11.5133" y2="9.90055" gradientUnits="userSpaceOnUse">
<stop stop-color="#17696A"/>
<stop offset="1" stop-color="#17696A"/>
</linearGradient>
<clipPath id="clip0_724_118">
<rect width="31.16" height="30.176" fill="white" transform="translate(4.92 5.41199)"/>
</clipPath>
</defs>
</svg>
