<svg width="408" height="64" viewBox="0 0 408 64" fill="none" xmlns="http://www.w3.org/2000/svg">
<rect x="0.500549" y="0.5" width="119" height="63" rx="3.5" fill="#F4F5F7"/>
<rect x="0.500549" y="0.5" width="119" height="63" rx="3.5" stroke="#D7DADD"/>
<path d="M54.8271 42.6848H49.0247L52.6512 20.3982H58.4541L54.8271 42.6848ZM44.1434 20.3982L38.6117 35.7271L37.9571 32.4262L37.9577 32.4274L36.0053 22.4048C36.0053 22.4048 35.7692 20.3982 33.2529 20.3982H24.1079L24.0005 20.7755C24.0005 20.7755 26.7971 21.3574 30.07 23.3229L35.1111 42.6854H41.1567L50.3882 20.3982H44.1434ZM89.7821 42.6848H95.1099L90.4647 20.3976H85.8004C83.6465 20.3976 83.1218 22.0585 83.1218 22.0585L74.468 42.6848H80.5166L81.7262 39.3744H89.1025L89.7821 42.6848ZM83.3973 34.8013L86.446 26.4611L88.1611 34.8013H83.3973ZM74.9217 25.7576L75.7498 20.9717C75.7498 20.9717 73.1947 19.9999 70.531 19.9999C67.6516 19.9999 60.8137 21.2584 60.8137 27.378C60.8137 33.1356 68.8392 33.2072 68.8392 36.2315C68.8392 39.2557 61.6406 38.7138 59.2649 36.8067L58.4023 41.8109C58.4023 41.8109 60.9932 43.0694 64.9516 43.0694C68.9113 43.0694 74.8848 41.0192 74.8848 35.4392C74.8848 29.6445 66.7872 29.105 66.7872 26.5857C66.7878 24.0657 72.4387 24.3894 74.9217 25.7576Z" fill="#2566AF"/>
<path d="M37.9577 32.4267L36.0053 22.4042C36.0053 22.4042 35.7692 20.3975 33.2529 20.3975H24.1079L24.0005 20.7749C24.0005 20.7749 28.396 21.6858 32.612 25.0988C36.6432 28.361 37.9577 32.4267 37.9577 32.4267Z" fill="#E6A540"/>
<rect x="144.501" y="0.5" width="119" height="63" rx="3.5" fill="#F4F5F7"/>
<rect x="144.501" y="0.5" width="119" height="63" rx="3.5" stroke="#D7DADD"/>
<path d="M230.2 52.4262V52.5341H230.301C230.32 52.5344 230.338 52.5297 230.355 52.5204C230.361 52.5157 230.367 52.5095 230.37 52.5023C230.374 52.4951 230.375 52.4871 230.375 52.4791C230.375 52.4712 230.374 52.4634 230.37 52.4563C230.367 52.4493 230.361 52.4433 230.355 52.4388C230.338 52.4291 230.32 52.4243 230.301 52.4251H230.2V52.4262ZM230.302 52.3498C230.345 52.3471 230.388 52.3595 230.423 52.3849C230.437 52.3964 230.448 52.411 230.455 52.4276C230.463 52.4442 230.466 52.4623 230.465 52.4804C230.466 52.496 230.463 52.5116 230.457 52.5261C230.451 52.5405 230.442 52.5536 230.431 52.5643C230.404 52.5878 230.37 52.6019 230.334 52.6046L230.469 52.7584H230.365L230.241 52.6056H230.201V52.7584H230.114V52.35H230.303L230.302 52.3498ZM230.275 52.8993C230.32 52.8997 230.366 52.8905 230.407 52.8723C230.448 52.855 230.484 52.8301 230.515 52.7992C230.546 52.7682 230.571 52.7316 230.588 52.6912C230.624 52.6057 230.624 52.5095 230.588 52.424C230.571 52.3838 230.546 52.3472 230.515 52.316C230.484 52.2851 230.448 52.2603 230.407 52.2429C230.365 52.2257 230.32 52.217 230.275 52.2175C230.229 52.2171 230.183 52.2257 230.14 52.2429C230.099 52.2599 230.061 52.2848 230.029 52.316C229.982 52.365 229.949 52.427 229.937 52.4941C229.924 52.5613 229.931 52.6308 229.957 52.6939C229.974 52.7344 229.998 52.7711 230.029 52.8019C230.061 52.8331 230.099 52.858 230.14 52.875C230.183 52.8932 230.228 52.9024 230.275 52.902V52.8993ZM230.275 52.1193C230.393 52.1192 230.507 52.1657 230.592 52.2488C230.633 52.2888 230.665 52.3364 230.687 52.3889C230.711 52.4429 230.722 52.5009 230.722 52.5596C230.722 52.6183 230.711 52.6764 230.687 52.7303C230.665 52.7826 230.632 52.8301 230.592 52.8704C230.551 52.9101 230.502 52.9421 230.45 52.9649C230.394 52.9884 230.335 53.0003 230.275 53C230.214 53.0004 230.154 52.9885 230.098 52.9649C230.044 52.9426 229.996 52.9106 229.954 52.8704C229.914 52.8286 229.882 52.7795 229.86 52.7257C229.837 52.6718 229.825 52.6137 229.825 52.555C229.825 52.4964 229.837 52.4383 229.86 52.3843C229.883 52.3318 229.915 52.2842 229.956 52.2443C229.997 52.2034 230.045 52.1712 230.099 52.1498C230.155 52.1262 230.215 52.1143 230.276 52.1147L230.275 52.1193ZM188.949 50.5423C188.949 49.7636 189.459 49.124 190.292 49.124C191.089 49.124 191.627 49.7361 191.627 50.5423C191.627 51.3485 191.089 51.9606 190.292 51.9606C189.459 51.9606 188.949 51.3209 188.949 50.5423ZM192.535 50.5423V48.3265H191.572V48.8662C191.266 48.4673 190.803 48.2172 190.172 48.2172C188.931 48.2172 187.957 49.1909 187.957 50.5434C187.957 51.8958 188.93 52.8696 190.172 52.8696C190.802 52.8696 191.266 52.6191 191.572 52.2205V52.7584H192.534V50.5423H192.535ZM225.082 50.5423C225.082 49.7636 225.592 49.124 226.426 49.124C227.224 49.124 227.76 49.7361 227.76 50.5423C227.76 51.3485 227.224 51.9606 226.426 51.9606C225.592 51.9606 225.082 51.3209 225.082 50.5423ZM228.669 50.5423V46.5479H227.705V48.8662C227.4 48.4673 226.936 48.2172 226.306 48.2172C225.065 48.2172 224.09 49.1909 224.09 50.5434C224.09 51.8958 225.064 52.8696 226.306 52.8696C226.936 52.8696 227.4 52.6191 227.705 52.2205V52.7584H228.669V50.5423ZM204.49 49.0784C205.111 49.0784 205.51 49.4676 205.611 50.1528H203.313C203.416 49.5132 203.804 49.0784 204.49 49.0784H204.49ZM204.51 48.2147C203.211 48.2147 202.303 49.1594 202.303 50.5409C202.303 51.9495 203.248 52.8672 204.574 52.8672C205.241 52.8672 205.852 52.7006 206.39 52.2464L205.918 51.5325C205.547 51.8294 205.074 51.9959 204.629 51.9959C204.008 51.9959 203.443 51.7085 203.304 50.911H206.593C206.603 50.7911 206.613 50.6702 206.613 50.5407C206.603 49.1596 205.749 48.2145 204.509 48.2145L204.51 48.2147ZM216.139 50.5407C216.139 49.762 216.649 49.1224 217.483 49.1224C218.279 49.1224 218.817 49.7345 218.817 50.5407C218.817 51.3469 218.279 51.959 217.483 51.959C216.649 51.959 216.139 51.3193 216.139 50.5407H216.139ZM219.725 50.5407V48.3265H218.762V48.8662C218.456 48.4673 217.993 48.2172 217.363 48.2172C216.122 48.2172 215.147 49.1909 215.147 50.5434C215.147 51.8958 216.121 52.8696 217.363 52.8696C217.993 52.8696 218.456 52.6191 218.762 52.2205V52.7584H219.725V50.5423L219.725 50.5407ZM210.699 50.5407C210.699 51.8845 211.635 52.8669 213.062 52.8669C213.729 52.8669 214.174 52.7185 214.655 52.3387L214.192 51.5601C213.83 51.82 213.451 51.959 213.031 51.959C212.263 51.9495 211.697 51.3935 211.697 50.5407C211.697 49.6878 212.263 49.1321 213.031 49.1224C213.45 49.1224 213.829 49.2614 214.192 49.5213L214.655 48.7426C214.173 48.3629 213.729 48.2145 213.062 48.2145C211.635 48.2145 210.699 49.1966 210.699 50.5407ZM223.117 48.2145C222.561 48.2145 222.199 48.4744 221.949 48.8636V48.3265H220.994V52.756H221.959V50.2729C221.959 49.5399 222.274 49.1326 222.903 49.1326C223.11 49.1297 223.314 49.1675 223.506 49.2441L223.803 48.3362C223.59 48.2522 223.312 48.2153 223.116 48.2153L223.117 48.2145ZM197.297 48.6787C196.834 48.3732 196.195 48.2153 195.491 48.2153C194.369 48.2153 193.646 48.7532 193.646 49.6333C193.646 50.3555 194.184 50.8011 195.174 50.9401L195.629 51.0049C196.158 51.0791 196.407 51.2181 196.407 51.4683C196.407 51.8108 196.056 52.0062 195.397 52.0062C194.73 52.0062 194.249 51.793 193.924 51.5428L193.471 52.2939C194 52.6831 194.667 52.8688 195.389 52.8688C196.669 52.8688 197.41 52.2664 197.41 51.423C197.41 50.6443 196.826 50.237 195.862 50.098L195.408 50.0322C194.991 49.9782 194.657 49.8943 194.657 49.5974C194.657 49.2735 194.972 49.0787 195.501 49.0787C196.066 49.0787 196.614 49.2919 196.882 49.4584L197.299 48.6798L197.297 48.6787ZM209.726 48.2161C209.17 48.2161 208.808 48.476 208.559 48.8652V48.3265H207.605V52.756H208.568V50.2729C208.568 49.5399 208.883 49.1326 209.513 49.1326C209.719 49.1297 209.924 49.1675 210.115 49.2441L210.412 48.3362C210.199 48.2522 209.921 48.2153 209.726 48.2153L209.726 48.2161ZM201.506 48.3265H199.931V46.9827H198.957V48.3265H198.059V49.2069H198.957V51.2276C198.957 52.2553 199.356 52.8674 200.496 52.8674C200.914 52.8674 201.395 52.7379 201.701 52.5249L201.423 51.7001C201.135 51.8667 200.82 51.9506 200.57 51.9506C200.088 51.9506 199.931 51.6537 199.931 51.2092V49.2077H201.506V48.3265ZM187.105 52.7571V49.9771C187.105 48.9302 186.438 48.2258 185.362 48.2163C184.797 48.2069 184.213 48.3829 183.805 49.0044C183.5 48.5132 183.018 48.2163 182.341 48.2163C181.868 48.2163 181.406 48.3553 181.044 48.8741V48.3265H180.08V52.756H181.051V50.2999C181.051 49.531 181.478 49.1224 182.136 49.1224C182.776 49.1224 183.1 49.5394 183.1 50.2902V52.7554H184.073V50.2994C184.073 49.5305 184.518 49.1218 185.157 49.1218C185.815 49.1218 186.129 49.5388 186.129 50.2897V52.7549L187.105 52.7571Z" fill="#231F20"/>
<path d="M230.751 38.0221V37.3744H230.582L230.387 37.8189L230.193 37.3744H230.024V38.0221H230.143V37.5342L230.326 37.9552H230.45L230.632 37.5331V38.0221H230.751H230.751ZM229.681 38.0221V37.4853H229.896V37.376H229.345V37.4853H229.561V38.0221H229.679H229.681Z" fill="#F79410"/>
<path d="M211.578 40.8009H196.981V14.5671H211.579L211.578 40.8009Z" fill="#FF5F00"/>
<path d="M197.906 27.6842C197.906 22.3627 200.398 17.6223 204.278 14.5673C201.341 12.2515 197.708 10.9946 193.968 11.0001C184.755 11.0001 177.286 18.4697 177.286 27.6842C177.286 36.8987 184.755 44.3683 193.968 44.3683C197.708 44.3739 201.341 43.117 204.278 40.8011C200.398 37.7467 197.906 33.006 197.906 27.6842Z" fill="#EB001B"/>
<path d="M231.271 27.6842C231.271 36.8987 223.803 44.3683 214.589 44.3683C210.849 44.3738 207.215 43.1169 204.278 40.8011C208.159 37.7462 210.651 33.006 210.651 27.6842C210.651 22.3624 208.159 17.6223 204.278 14.5673C207.215 12.2516 210.848 10.9947 214.589 11.0001C223.802 11.0001 231.271 18.4697 231.271 27.6842" fill="#F79E1B"/>
<rect x="288.501" y="0.5" width="119" height="63" rx="3.5" fill="#F4F5F7"/>
<rect x="288.501" y="0.5" width="119" height="63" rx="3.5" stroke="#D7DADD"/>
<path d="M323.275 23.3812C322.359 22.337 320.703 21.8894 318.584 21.8894H312.436C312.226 21.8892 312.023 21.964 311.864 22.1001C311.704 22.2363 311.599 22.4249 311.566 22.632L309.007 38.8697C308.995 38.945 308.999 39.022 309.02 39.0954C309.041 39.1687 309.077 39.2368 309.127 39.2947C309.177 39.3526 309.238 39.3992 309.307 39.431C309.377 39.4629 309.452 39.4794 309.528 39.4793H313.324L314.277 33.4327L314.248 33.622C314.28 33.4153 314.385 33.2269 314.544 33.0907C314.703 32.9546 314.905 32.8796 315.114 32.8794H316.918C320.461 32.8794 323.236 31.4401 324.046 27.2766C324.071 27.1534 324.091 27.0336 324.109 26.9165C324.35 25.3776 324.108 24.3301 323.275 23.3817" fill="#003087"/>
<path d="M369.744 31.1076C369.512 32.6312 368.348 32.6312 367.223 32.6312H366.583L367.032 29.7865C367.06 29.6147 367.207 29.4883 367.381 29.4883H367.675C368.441 29.4883 369.165 29.4883 369.538 29.9244C369.761 30.1855 369.828 30.5729 369.744 31.1076ZM369.254 27.1323H365.01C364.869 27.1324 364.733 27.1826 364.626 27.2738C364.519 27.3651 364.448 27.4915 364.426 27.6303L362.711 38.5136C362.703 38.5641 362.706 38.6156 362.72 38.6648C362.734 38.7139 362.759 38.7595 362.792 38.7983C362.825 38.8371 362.866 38.8683 362.912 38.8898C362.959 38.9112 363.009 38.9223 363.06 38.9224H365.238C365.441 38.9224 365.614 38.7747 365.646 38.5744L366.133 35.4878C366.178 35.2016 366.425 34.9898 366.715 34.9898H368.058C370.855 34.9898 372.468 33.6376 372.89 30.9554C373.079 29.7832 372.897 28.8616 372.348 28.2164C371.745 27.5072 370.675 27.1318 369.255 27.1318" fill="#009CDE"/>
<path d="M339.471 31.1077C339.238 32.6313 338.075 32.6313 336.949 32.6313H336.309L336.758 29.7866C336.786 29.6148 336.933 29.4884 337.107 29.4884H337.401C338.167 29.4884 338.891 29.4884 339.264 29.9245C339.487 30.1856 339.555 30.573 339.471 31.1077ZM338.981 27.1324H334.736C334.446 27.1324 334.199 27.3437 334.153 27.6304L332.438 38.5137C332.43 38.5642 332.433 38.6158 332.447 38.665C332.461 38.7142 332.485 38.7597 332.518 38.7986C332.551 38.8375 332.592 38.8687 332.639 38.89C332.685 38.9114 332.736 38.9225 332.787 38.9225H334.814C335.104 38.9225 335.351 38.7113 335.396 38.4245L335.86 35.4885C335.905 35.2017 336.152 34.9905 336.442 34.9905H337.785C340.581 34.9905 342.195 33.6377 342.616 30.9556C342.806 29.7833 342.624 28.8617 342.075 28.2165C341.471 27.5073 340.401 27.1319 338.981 27.1319L338.981 27.1324ZM348.835 35.0151C348.638 36.1764 347.717 36.9562 346.541 36.9562C345.952 36.9562 345.479 36.7663 345.176 36.4073C344.875 36.0516 344.762 35.5443 344.858 34.9801C345.04 33.8287 345.977 33.0242 347.135 33.0242C347.713 33.0242 348.181 33.2157 348.49 33.578C348.802 33.943 348.924 34.4531 348.835 35.0151ZM351.668 31.0584H349.635C349.551 31.0583 349.469 31.0885 349.405 31.1434C349.341 31.1982 349.298 31.2743 349.285 31.3578L349.196 31.9258L349.054 31.7201C348.614 31.0814 347.633 30.8674 346.653 30.8674C344.408 30.8674 342.49 32.5694 342.116 34.9555C341.922 36.1468 342.198 37.2846 342.873 38.0787C343.493 38.8081 344.378 39.1119 345.433 39.1119C347.243 39.1119 348.247 37.9495 348.247 37.9495L348.156 38.5143C348.148 38.5648 348.151 38.6164 348.165 38.6657C348.179 38.7149 348.203 38.7605 348.237 38.7994C348.27 38.8382 348.311 38.8694 348.358 38.8908C348.404 38.9121 348.455 38.9231 348.506 38.9231H350.336C350.626 38.9231 350.873 38.7124 350.919 38.4251L352.017 31.4678C352.025 31.4172 352.022 31.3656 352.008 31.3164C351.994 31.2671 351.97 31.2215 351.937 31.1827C351.903 31.1438 351.862 31.1127 351.815 31.0913C351.769 31.0699 351.718 31.0589 351.667 31.059" fill="#003087"/>
<path d="M379.108 35.0154C378.911 36.1766 377.99 36.9565 376.814 36.9565C376.224 36.9565 375.752 36.7666 375.449 36.4076C375.148 36.0519 375.035 35.5445 375.13 34.9803C375.313 33.8289 376.25 33.0244 377.408 33.0244C377.985 33.0244 378.453 33.216 378.763 33.5783C379.075 33.9433 379.197 34.4533 379.108 35.0154ZM381.941 31.0587H379.908C379.823 31.0586 379.742 31.0887 379.678 31.1436C379.613 31.1985 379.571 31.2746 379.558 31.358L379.469 31.9261L379.327 31.7203C378.887 31.0817 377.906 30.8677 376.926 30.8677C374.681 30.8677 372.763 32.5697 372.389 34.9557C372.195 36.1471 372.471 37.2848 373.147 38.0789C373.767 38.8084 374.652 39.1121 375.706 39.1121C377.517 39.1121 378.521 37.9497 378.521 37.9497L378.43 38.5145C378.422 38.565 378.425 38.6166 378.438 38.6658C378.452 38.715 378.476 38.7607 378.51 38.7996C378.543 38.8385 378.584 38.8697 378.63 38.891C378.677 38.9124 378.727 38.9234 378.778 38.9233H380.608C380.898 38.9233 381.145 38.7126 381.191 38.4253L382.29 31.468C382.298 31.4175 382.295 31.3658 382.281 31.3166C382.267 31.2674 382.243 31.2218 382.209 31.1829C382.176 31.1441 382.135 31.1129 382.088 31.0915C382.042 31.0702 381.991 31.0592 381.94 31.0592" fill="#009CDE"/>
<path d="M362.494 31.059H360.451C360.256 31.059 360.073 31.1559 359.964 31.3179L357.146 35.4683L355.951 31.4799C355.914 31.3582 355.84 31.2516 355.738 31.1757C355.636 31.0998 355.513 31.0587 355.386 31.0585H353.378C353.321 31.0585 353.266 31.072 353.216 31.0977C353.166 31.1235 353.123 31.1608 353.09 31.2066C353.057 31.2524 353.036 31.3054 353.028 31.3611C353.019 31.4168 353.025 31.4737 353.043 31.5269L355.292 38.1302L353.176 41.1154C353.139 41.1684 353.117 41.2307 353.112 41.2954C353.108 41.3601 353.121 41.4247 353.151 41.4823C353.181 41.5399 353.226 41.5882 353.281 41.622C353.337 41.6557 353.4 41.6736 353.465 41.6736H355.506C355.699 41.6736 355.88 41.579 355.991 41.4203L362.784 31.6145C362.821 31.5615 362.843 31.4994 362.847 31.435C362.851 31.3705 362.838 31.3062 362.808 31.2489C362.778 31.1917 362.733 31.1437 362.678 31.1103C362.622 31.0768 362.559 31.0591 362.494 31.059Z" fill="#003087"/>
<path d="M384.337 27.4321L382.594 38.5146C382.586 38.5651 382.589 38.6167 382.603 38.6659C382.617 38.7151 382.642 38.7606 382.675 38.7995C382.708 38.8383 382.749 38.8695 382.796 38.8909C382.842 38.9123 382.893 38.9234 382.944 38.9234H384.696C384.986 38.9234 385.233 38.7122 385.278 38.4254L386.996 27.5415C387.004 27.491 387.001 27.4394 386.987 27.3902C386.973 27.3409 386.949 27.2953 386.916 27.2565C386.882 27.2176 386.841 27.1864 386.795 27.165C386.748 27.1437 386.698 27.1327 386.647 27.1327H384.686C384.602 27.1325 384.52 27.1625 384.456 27.2174C384.392 27.2722 384.35 27.3482 384.337 27.4315" fill="#009CDE"/>
<path d="M323.275 23.3812C322.359 22.337 320.703 21.8894 318.584 21.8894H312.436C312.226 21.8892 312.023 21.964 311.864 22.1001C311.704 22.2363 311.599 22.4249 311.566 22.632L309.007 38.8697C308.995 38.945 308.999 39.022 309.02 39.0954C309.041 39.1687 309.077 39.2368 309.127 39.2947C309.177 39.3526 309.238 39.3992 309.307 39.431C309.377 39.4629 309.452 39.4794 309.528 39.4793H313.324L314.277 33.4327L314.248 33.622C314.28 33.4153 314.385 33.2269 314.544 33.0907C314.703 32.9546 314.905 32.8796 315.114 32.8794H316.918C320.461 32.8794 323.236 31.4401 324.046 27.2766C324.071 27.1534 324.091 27.0336 324.109 26.9165C324.35 25.3776 324.108 24.3301 323.275 23.3817" fill="#003087"/>
<path d="M315.302 26.9367C315.331 26.7557 315.423 26.5909 315.562 26.4718C315.702 26.3528 315.879 26.2873 316.062 26.2871H320.882C321.453 26.2871 321.986 26.3243 322.472 26.402C322.738 26.4448 323.001 26.5036 323.26 26.5782C323.554 26.6609 323.839 26.7742 324.109 26.9164C324.351 25.377 324.108 24.3301 323.275 23.3811C322.359 22.3375 320.703 21.8898 318.585 21.8898H312.436C312.226 21.89 312.024 21.9649 311.865 22.101C311.705 22.2371 311.6 22.4255 311.567 22.6325L309.007 38.8685C308.995 38.9438 308.999 39.0208 309.02 39.0943C309.041 39.1677 309.077 39.2357 309.127 39.2937C309.176 39.3517 309.238 39.3983 309.307 39.4302C309.376 39.4621 309.452 39.4787 309.528 39.4787H313.324L314.277 33.4315L315.302 26.9367Z" fill="#003087"/>
<path d="M324.109 26.9158C324.09 27.0362 324.069 27.1562 324.046 27.2758C323.236 31.4388 320.461 32.8787 316.918 32.8787H315.113C314.904 32.8788 314.702 32.9538 314.543 33.0899C314.384 33.2261 314.28 33.4146 314.248 33.6213L313.324 39.478L313.061 41.1395C313.051 41.2055 313.055 41.2729 313.073 41.3372C313.091 41.4015 313.123 41.461 313.166 41.5118C313.21 41.5626 313.263 41.6033 313.324 41.6313C313.385 41.6592 313.451 41.6737 313.518 41.6736H316.717C317.096 41.6736 317.418 41.3978 317.478 41.0241L317.509 40.861L318.112 37.0389L318.15 36.8277C318.179 36.6466 318.271 36.4816 318.411 36.3625C318.55 36.2435 318.727 36.178 318.911 36.1781H319.39C322.489 36.1781 324.916 34.9194 325.626 31.2768C325.921 29.7555 325.768 28.4842 324.985 27.5916C324.737 27.3149 324.44 27.0858 324.109 26.9158Z" fill="#009CDE"/>
<path d="M323.259 26.5787C323.136 26.542 323.008 26.5092 322.877 26.4802C322.745 26.4512 322.61 26.4255 322.471 26.4036C321.984 26.3242 321.452 26.287 320.88 26.287H316.061C315.877 26.2868 315.7 26.3522 315.56 26.4714C315.421 26.5907 315.329 26.7559 315.3 26.9371L314.276 33.4331L314.246 33.6219C314.278 33.4152 314.383 33.2267 314.542 33.0905C314.701 32.9543 314.903 32.8794 315.112 32.8793H316.916C320.46 32.8793 323.235 31.44 324.045 27.2764C324.069 27.1533 324.089 27.034 324.108 26.9163C323.894 26.8043 323.671 26.7103 323.441 26.6351C323.382 26.6154 323.321 26.5967 323.259 26.5781" fill="#012169"/>
</svg>
