<svg width="20" height="20" viewBox="0 0 20 20" fill="none" xmlns="http://www.w3.org/2000/svg">
<path d="M10.2512 0.833313C5.19014 0.834077 2.5 4.05391 2.5 7.5648C2.5 9.19267 3.4162 11.2239 4.8832 11.8678C5.30168 12.055 5.24629 11.8266 5.60631 10.4592C5.63478 10.3454 5.62016 10.2468 5.52785 10.1407C3.43082 7.73209 5.1186 2.78049 9.95192 2.78049C16.9469 2.78049 15.6399 12.3919 11.1689 12.3919C10.0165 12.3919 9.15803 11.4935 9.42959 10.3821C9.75883 9.05822 10.4035 7.63508 10.4035 6.68096C10.4035 4.27621 6.7956 4.63295 6.7956 7.81918C6.7956 8.80384 7.14639 9.46843 7.14639 9.46843C7.14639 9.46843 5.98556 14.1252 5.77017 14.9952C5.40553 16.468 5.8194 18.8522 5.85556 19.0577C5.87787 19.1707 6.00556 19.2066 6.07711 19.1134C6.19173 18.9645 7.59488 16.9768 7.98797 15.5399C8.13106 15.0166 8.71801 12.893 8.71801 12.893C9.10495 13.5866 10.2204 14.1672 11.4089 14.1672C14.9445 14.1672 17.5 11.081 17.5 7.2516C17.4877 3.5803 14.3237 0.833313 10.2512 0.833313V0.833313Z" fill="#787A80"/>
</svg>
