<svg width="20" height="20" viewBox="0 0 20 20" fill="none" xmlns="http://www.w3.org/2000/svg">
<path d="M18.75 4.81042C18.1059 5.0837 17.4148 5.26904 16.6887 5.35178C17.4301 4.92665 17.9976 4.25233 18.2666 3.45131C17.5711 3.845 16.8035 4.13088 15.9855 4.28585C15.3305 3.61676 14.3988 3.20001 13.3653 3.20001C11.3827 3.20001 9.77523 4.73923 9.77523 6.63656C9.77523 6.90565 9.80694 7.16847 9.86819 7.41979C6.88501 7.27632 4.23973 5.90778 2.46928 3.82825C2.1598 4.33505 1.98374 4.92558 1.98374 5.55595C1.98374 6.74859 2.618 7.80092 3.58033 8.41658C2.992 8.39775 2.43866 8.24278 1.95423 7.98519V8.02812C1.95423 9.69298 3.19213 11.0825 4.83353 11.3987C4.5328 11.4762 4.21568 11.5191 3.88761 11.5191C3.6558 11.5191 3.43161 11.4971 3.2118 11.4552C3.66889 12.8217 4.99429 13.8154 6.56463 13.8426C5.33657 14.7641 3.7881 15.3117 2.10624 15.3117C1.81646 15.3117 1.53103 15.2949 1.25 15.2646C2.83893 16.2415 4.7253 16.8111 6.75273 16.8111C13.3566 16.8111 16.9665 11.5736 16.9665 7.03132L16.9544 6.58631C17.6597 6.10462 18.2699 5.49941 18.75 4.81042Z" fill="#787A80"/>
</svg>
