<svg width="20" height="20" viewBox="0 0 20 20" fill="none" xmlns="http://www.w3.org/2000/svg">
<g clip-path="url(#clip0_724_103)">
<path d="M10.0135 0C13.4268 0 16.2037 2.6446 16.2037 5.8954C16.2037 8.0994 14.9306 10.0274 13.0799 11.0196C16.8402 12.1766 19.617 15.3172 19.9639 19.229C20.0796 20.2204 18.1125 20.2759 18.0551 19.3392C17.6498 15.4274 14.1209 12.4524 10.0135 12.4524C5.84799 12.4524 2.37732 15.4274 1.97202 19.3392C1.85635 20.2759 -0.110763 20.2204 0.00490547 19.229C0.410142 15.372 3.18683 12.1766 6.88892 11.0196C5.03747 10.0282 3.76517 8.0992 3.76517 5.8954C3.76517 2.6446 6.60017 0 10.0135 0ZM10.0135 1.87344C7.64198 1.87344 5.73224 3.6914 5.73224 5.89524C5.73224 8.15384 7.64109 9.97264 10.0135 9.97264C12.3277 9.97264 14.2364 8.15468 14.2364 5.89524C14.2364 3.69124 12.3275 1.87344 10.0135 1.87344Z" fill="#17696A"/>
</g>
<defs>
<clipPath id="clip0_724_103">
<rect width="20" height="20" fill="white"/>
</clipPath>
</defs>
</svg>
